<svg width="185" height="62" viewBox="0 0 185 62" fill="none" xmlns="http://www.w3.org/2000/svg">
<path fill-rule="evenodd" clip-rule="evenodd" d="M41.5259 7.69667L36.9306 8.00491L35.4389 3.58294C35.3668 3.38141 35.066 3.40512 35.0419 3.61851L34.3322 8.94147L30.5188 11.6563C30.3624 11.763 30.4346 12.012 30.6271 12.0238L34.5728 12.332L36.2088 16.268C36.2809 16.4576 36.5576 16.4221 36.6058 16.2324L37.5441 11.5259L41.6943 8.06419C41.8266 7.93378 41.7304 7.68482 41.5259 7.69667ZM37.6646 25.7157C37.7127 24.8858 37.7488 24.056 37.7729 23.2143C41.1291 26.9605 43.1741 31.8804 43.1621 37.2863C43.1621 49.0348 33.5023 58.5545 21.581 58.5545C9.65975 58.5545 0 49.0348 0 37.2863C0 25.5379 9.65975 16.0182 21.581 16.0182C25.9718 16.0182 30.0619 17.3223 33.4663 19.5392C33.6948 20.7484 33.791 21.9932 33.8151 22.3488V22.4081V22.42C34.0918 26.6523 33.8272 30.9438 32.8047 35.0339C32.2994 37.0729 31.6016 39.0765 30.6513 40.9022C30.4107 41.3645 30.1701 41.815 29.8934 42.2418C29.6168 42.6686 29.3281 43.0835 29.0274 43.4747C28.4259 44.2453 27.7281 44.9448 26.9823 45.4308C26.6094 45.6679 26.2365 45.8576 25.8636 45.9643C25.6831 46.0117 25.5027 46.0591 25.3222 46.071C25.1418 46.0829 24.9734 46.0829 24.805 46.0591L24.6727 46.0354C24.6441 46.0354 24.6155 46.028 24.581 46.019L24.5523 46.0117C24.4962 46.0038 24.4401 45.9854 24.384 45.967L24.384 45.9669C24.3559 45.9577 24.3278 45.9485 24.2997 45.9406C24.1313 45.8813 23.9629 45.8102 23.8065 45.7035C23.4817 45.502 23.1569 45.2174 22.8682 44.8855L22.6517 44.6247L22.4471 44.3401L22.2547 44.0438L22.1464 43.8541C22.185 43.7988 22.2235 43.7445 22.2618 43.6907L22.262 43.6904C22.355 43.5596 22.4462 43.4312 22.5314 43.2969C23.193 42.3129 23.7464 41.2815 24.2155 40.2146C24.6967 39.1594 25.0816 38.0569 25.3944 36.9425C25.6951 35.8163 25.9357 34.6782 26.056 33.5045C26.1162 32.9118 26.1523 32.319 26.1402 31.7144C26.1402 31.1098 26.0921 30.4933 25.9718 29.8532C25.9116 29.5449 25.8275 29.213 25.7072 28.881C25.5869 28.5491 25.4305 28.2053 25.202 27.8615C25.1418 27.7666 25.0816 27.6837 25.0094 27.6007C24.9914 27.577 24.9734 27.5562 24.9553 27.5355C24.9373 27.5147 24.9193 27.494 24.9012 27.4703L24.7809 27.3517C24.7087 27.2687 24.6125 27.1857 24.5163 27.1146L24.1914 26.9012C23.9508 26.7708 23.6862 26.676 23.3975 26.6167C23.1208 26.5693 22.8201 26.5574 22.5554 26.6048C22.0141 26.6878 21.5931 26.9131 21.2562 27.1383C20.9194 27.3754 20.6547 27.6244 20.4141 27.8852C19.945 28.4068 19.5961 28.9522 19.2954 29.4975C18.7059 30.6 18.321 31.7381 18.0443 32.8999C17.7677 34.0617 17.6233 35.2472 17.5872 36.4328C17.5511 37.6183 17.6353 38.8157 17.8518 39.9893C18.0684 41.163 18.4052 42.3129 18.8744 43.4273C18.9105 43.5044 18.9466 43.5844 18.9827 43.6644L18.9828 43.6648C19.0189 43.7447 19.0549 43.8246 19.0909 43.9015C18.9947 44.02 18.8878 44.128 18.7809 44.236L18.7809 44.236L18.7808 44.2361L18.7806 44.2363C18.7272 44.2902 18.6738 44.3442 18.6217 44.3994C17.9 45.1107 17.094 45.7154 16.2279 46.1777C15.3738 46.6282 14.3513 47.0076 13.5934 47.0076C13.413 47.0076 13.2446 46.9838 13.1123 46.9483C12.9799 46.9127 12.8716 46.8534 12.7754 46.7705C12.6792 46.6756 12.5709 46.5689 12.4867 46.4148C12.4025 46.2607 12.3183 46.071 12.2581 45.8695C12.1258 45.4545 12.0416 44.9803 12.0055 44.4824C11.9574 43.9845 11.9574 43.4629 11.9694 42.9412C11.9935 41.898 12.0897 40.8192 12.21 39.7404C12.2622 39.2149 12.3227 38.6894 12.3836 38.1613C12.449 37.5933 12.5148 37.0221 12.5709 36.4446L12.607 36.0297C12.6131 35.9633 12.6161 35.8878 12.6192 35.8108V35.8108C12.6221 35.7365 12.6251 35.6609 12.631 35.591L12.6431 35.3658V35.1405C12.6431 34.9864 12.6431 34.8323 12.631 34.6782C12.595 34.0499 12.5228 33.4097 12.234 32.7221C12.0777 32.3783 11.8612 32.0226 11.5123 31.7144C11.4802 31.6907 11.4481 31.6657 11.416 31.6406C11.3519 31.5906 11.2878 31.5405 11.2236 31.501C11.1153 31.4417 11.0071 31.3825 10.8988 31.335C10.8386 31.3173 10.7815 31.2995 10.7244 31.2817C10.6672 31.2639 10.6101 31.2461 10.55 31.2284C10.4297 31.2046 10.3213 31.1928 10.201 31.1809C9.7319 31.1454 9.32294 31.2521 8.97408 31.3825L8.97386 31.3826C8.80552 31.4537 8.63716 31.5248 8.49287 31.6196C8.4668 31.6342 8.44188 31.6478 8.41776 31.6609C8.36397 31.6901 8.31414 31.7172 8.26431 31.75L8.05982 31.8922C7.51849 32.2716 7.09747 32.7221 6.71252 33.1844C6.3396 33.6587 6.00275 34.1447 5.71404 34.6426C5.42533 35.1524 5.16067 35.6622 4.94413 36.1838C4.71557 36.7054 4.52311 37.2389 4.3547 37.7724C4.30658 37.9265 4.36673 38.1043 4.51109 38.1992C4.69153 38.3059 4.93213 38.2585 5.04039 38.0806C5.64187 37.1559 6.24333 36.2549 6.90496 35.4251C7.22976 35.022 7.5786 34.6189 7.93948 34.2633C8.28834 33.8958 8.67328 33.5757 9.05823 33.3386L9.20265 33.2556L9.347 33.1844C9.41311 33.1437 9.4792 33.1198 9.5414 33.0973L9.54143 33.0973C9.56977 33.087 9.5973 33.077 9.62365 33.0659C9.8041 33.0185 9.94842 32.9948 10.0447 33.0066C10.1409 33.0185 10.177 33.0422 10.2492 33.1015C10.3214 33.1607 10.3936 33.2911 10.4657 33.4453C10.5981 33.7891 10.6702 34.2514 10.6702 34.7256C10.6783 34.8051 10.6755 34.8899 10.6728 34.9728C10.6715 35.0137 10.6702 35.054 10.6702 35.0931V35.271L10.6582 35.4606C10.6534 35.5125 10.6486 35.5605 10.6439 35.6086L10.6438 35.609L10.6438 35.6092C10.6366 35.6819 10.6294 35.7545 10.6221 35.84L10.574 36.2431C10.4975 36.9211 10.4016 37.6087 10.3049 38.3029C10.2493 38.701 10.1935 39.1014 10.1409 39.5032C9.99656 40.6058 9.86421 41.7202 9.81609 42.8701C9.79204 43.451 9.79205 44.0319 9.82814 44.6365C9.87625 45.2293 9.94844 45.8576 10.1409 46.4978C10.2372 46.8179 10.3695 47.1498 10.55 47.4818C10.7304 47.8137 10.971 48.1457 11.2958 48.4183C11.6206 48.7029 12.0055 48.9162 12.4025 49.0466C12.7995 49.1771 13.1964 49.2363 13.5693 49.2363C13.9422 49.2363 14.3031 49.2008 14.6279 49.1415C14.9647 49.0822 15.2776 48.9992 15.5783 48.9044C15.879 48.8095 16.1677 48.7029 16.4564 48.5843C16.5286 48.5546 16.6008 48.522 16.673 48.4894L16.6736 48.4892C16.7455 48.4567 16.8175 48.4242 16.8895 48.3946C17.0338 48.3353 17.1782 48.2642 17.3106 48.1931C18.4173 47.624 19.4037 46.889 20.2698 46.0473L20.2939 46.0236L20.4503 46.2488C20.492 46.3003 20.5338 46.354 20.5765 46.4089C20.6323 46.4806 20.6897 46.5544 20.751 46.6282C21.1841 47.1261 21.6893 47.6122 22.3028 48.0034C22.6156 48.2049 22.9524 48.3709 23.3013 48.5132C23.3614 48.5329 23.4202 48.554 23.479 48.5751C23.5967 48.6172 23.7143 48.6594 23.8426 48.691C23.9266 48.7146 24.0224 48.7383 24.1184 48.7619L24.1191 48.7621L24.1193 48.7621L24.408 48.8095C25.1779 48.9162 25.9598 48.8451 26.6575 48.6554C27.3552 48.4539 27.9928 48.1575 28.5582 47.8019C29.1356 47.4581 29.6409 47.0431 30.098 46.6163C30.5551 46.1777 30.9761 45.7272 31.3611 45.253C32.131 44.3046 32.7805 43.3088 33.3459 42.2774C33.6038 41.8221 33.8329 41.3479 34.0588 40.8801L34.1399 40.7125C34.3805 40.179 34.6091 39.6455 34.8256 39.112C35.2587 38.0332 35.6196 36.9425 35.9444 35.84C36.5819 33.6349 37.027 31.3825 37.3277 29.1181C37.4721 27.9919 37.5924 26.8538 37.6646 25.7157ZM21.5548 30.6952C21.7713 30.2802 22.0239 29.889 22.3006 29.5808C22.4329 29.4267 22.5653 29.2962 22.6856 29.2251C22.7646 29.1667 22.8437 29.1322 22.8827 29.1152L22.8828 29.1152C22.8854 29.1141 22.8878 29.1131 22.89 29.1121C22.895 29.1099 22.8991 29.108 22.9021 29.1066C22.9021 29.1184 22.9141 29.1184 22.9141 29.1184C22.9186 29.1228 22.9248 29.1256 22.9313 29.1286C22.9424 29.1336 22.9547 29.1391 22.9622 29.154L22.9863 29.1777C22.9923 29.1836 22.9953 29.1896 22.9984 29.1955C23.0014 29.2014 23.0044 29.2073 23.0104 29.2133C23.0244 29.2202 23.0343 29.2351 23.0449 29.2511C23.0525 29.2625 23.0605 29.2745 23.0705 29.2844C23.1547 29.403 23.2269 29.5571 23.2991 29.7467C23.3592 29.9364 23.4194 30.138 23.4675 30.3632C23.5638 30.8019 23.5998 31.2879 23.6119 31.7858C23.6239 32.2719 23.5999 32.7817 23.5517 33.2914C23.4555 34.311 23.263 35.3305 22.9984 36.3382C22.7337 37.3459 22.3849 38.3299 21.9759 39.2901C21.6751 39.9896 21.3383 40.6772 20.9533 41.3292C20.7488 40.7365 20.5925 40.1437 20.4722 39.5272C20.0872 37.5474 20.1233 35.4609 20.5684 33.493C20.7849 32.509 21.1097 31.5487 21.5548 30.6952ZM117.877 23.7617H121.899V45.6159H117.877V43.861C116.865 45.3129 114.866 45.9821 113.265 45.9821C109.575 45.9821 106.219 43.0783 106.219 38.5332C106.219 33.9881 109.575 31.1096 113.265 31.1096C114.93 31.1096 116.865 31.7408 117.877 33.2054V23.7617ZM117.749 38.5206C117.749 36.3364 115.904 34.7961 114.033 34.7961C112.009 34.7961 110.318 36.4374 110.318 38.5206C110.318 40.5785 112.009 42.2829 114.033 42.2829C115.993 42.2829 117.749 40.6669 117.749 38.5206ZM76.8809 38.5475C76.8809 34.0656 80.5064 31.0986 84.5931 31.0986C88.6797 31.0986 92.3053 34.0656 92.3053 38.5475C92.3053 43.0042 88.6797 45.9711 84.5931 45.9711C80.5064 45.9711 76.8809 43.0042 76.8809 38.5475ZM88.2314 38.5475C88.2314 36.3381 86.6044 34.7852 84.6059 34.7852C82.6074 34.7852 80.9804 36.3255 80.9804 38.5475C80.9804 40.7317 82.6074 42.2719 84.6059 42.2719C86.6044 42.2846 88.2314 40.7317 88.2314 38.5475ZM72.0392 31.4639H76.4077L71.3346 45.6167H67.8885L64.942 36.4382L62.0851 45.6167H58.6389L53.4121 31.4639H57.7806L60.4837 40.0995L63.2253 31.4639H66.6074L69.3488 40.0995L72.0392 31.4639ZM104.618 35.3407L105.54 31.5531C104.899 31.2123 104.041 31.0986 103.272 31.0986C101.492 31.0986 99.8518 32.1339 99.0575 34.4948V31.4648H95.0605V45.605H99.0832V40.7569C99.0832 36.7295 100.492 34.8231 102.555 34.8231C103.055 34.8231 103.759 34.8862 104.618 35.3407ZM133.789 34.5558V31.4626H130.74V26.3115H126.717V31.4626H124.104V34.5558H126.717V45.6154H130.74V34.5558H133.789ZM145.715 31.4639H149.738V45.6167H145.715V43.3189C145.1 45.1622 142.82 45.9828 141.411 45.9828C137.657 45.9828 135.697 43.4957 135.723 39.2536V31.4639H139.745V39.039C139.745 41.2484 141.103 42.2837 142.487 42.2837C143.935 42.2837 145.715 41.5009 145.715 38.9506V31.4639ZM167.339 45.602V37.8501C167.378 33.608 165.405 31.0956 161.651 31.1082C160.242 31.1082 157.962 31.9541 157.347 33.8605V31.4617H153.324V45.602H157.347V38.1783C157.347 35.6028 159.127 34.8453 160.575 34.8453C161.959 34.8453 163.317 35.8427 163.317 38.0521V45.602H167.339ZM184.915 39.8196H174.128C174.563 41.4861 175.909 42.4582 177.817 42.4582C179.291 42.4582 180.713 41.7891 181.597 40.7917L183.928 43.1274C182.57 44.9201 180.085 45.9807 177.561 45.9807C173.129 45.9807 169.9 42.9254 169.9 38.5571C169.9 33.9867 173.436 31.1082 177.523 31.1082C181.648 31.1082 184.992 33.9867 184.992 38.3172C185.017 38.6959 184.979 39.1883 184.915 39.8196ZM180.956 37.244C180.828 35.5775 179.444 34.517 177.638 34.517C175.973 34.517 174.563 35.3376 174.128 37.244H180.956Z" fill="#753FEA"/>
</svg>
